<svg width="50" height="50" viewBox="0 0 50 50" fill="none" xmlns="http://www.w3.org/2000/svg">
<path d="M36.2038 28.1844C36.1837 28.2143 36.1635 28.2444 36.143 28.274C35.8575 28.6918 35.8668 28.7464 35.9382 29.0365L36.9665 32.9531C36.977 32.993 36.9768 33.0349 36.9658 33.0746C36.9548 33.1142 36.9334 33.1503 36.9039 33.179C36.8743 33.2077 36.8377 33.2281 36.7977 33.2379C36.7577 33.2478 36.7158 33.2468 36.6763 33.2352L32.1835 31.9364C31.9577 31.8714 31.6745 31.9422 31.4935 32.0113C31.3124 32.0803 30.6125 32.3363 29.9063 32.5301C29.2 32.7239 27.9123 33.0112 26.9565 33.0112C20.9444 33.0112 16.2693 28.2113 16.2693 22.4429C16.2698 21.7242 16.3477 21.0076 16.5014 20.3056C17.5263 15.5684 21.9007 12 27.1445 12C33.1567 12 38.0186 16.6745 38 22.4371C37.9977 24.4477 37.3971 26.4121 36.2747 28.0802C36.2509 28.1141 36.2274 28.1491 36.2038 28.1844Z" fill="white"/>
<path d="M26.9345 34.3687C27.3867 34.3609 27.8378 34.3212 28.2843 34.2497C28.3365 34.2416 28.39 34.2502 28.4369 34.2743C28.4839 34.2985 28.5219 34.337 28.5456 34.3842C28.5692 34.4315 28.5772 34.485 28.5685 34.5371C28.5597 34.5891 28.5346 34.6371 28.4967 34.674C26.6649 36.3964 24.2429 37.3517 21.7284 37.3434C20.4221 37.3434 19.1158 37.0579 17.9349 36.5937C17.8169 36.5423 17.6899 36.5147 17.5613 36.5126C17.4326 36.5104 17.3048 36.5336 17.1851 36.5809L13.2389 37.9876C13.2005 38.0007 13.1593 38.0035 13.1195 37.9957C13.0796 37.9879 13.0426 37.9698 13.0119 37.9432C12.9813 37.9166 12.9581 37.8824 12.9448 37.8441C12.9315 37.8057 12.9284 37.7646 12.936 37.7247L13.7536 33.5313C13.7786 33.4187 13.6974 33.2498 13.554 33.0311C12.4106 31.3179 11.8742 29.271 12.0305 27.2172C12.1868 25.1634 13.0268 23.2212 14.4164 21.7008C14.4513 21.6626 14.4971 21.6361 14.5476 21.6249C14.5981 21.6136 14.6508 21.6182 14.6986 21.638C14.7464 21.6578 14.787 21.6918 14.8148 21.7354C14.8426 21.7791 14.8562 21.8302 14.8539 21.8819L14.8539 21.8836C14.8475 22.0583 14.8412 22.2324 14.8412 22.4135C14.8412 25.0818 15.6664 27.6317 17.1799 29.6379C18.0071 30.7867 19.0543 31.7596 20.2608 32.5001C22.1469 33.7187 24.4722 34.3687 26.9345 34.3687Z" fill="white"/>
<rect x="1.00391" y="1" width="47.9959" height="48" rx="23.9979" stroke="white" stroke-width="2"/>
</svg>
