<svg width="92" height="29" viewBox="0 0 92 29" fill="none" xmlns="http://www.w3.org/2000/svg">
<path d="M0.156 22.946C0.156 26.652 2.808 28.624 5.902 28.624C8.69 28.624 10.696 26.958 11.58 25.972V26.89C11.58 28.318 11.988 28.624 13.518 28.624C14.878 28.624 16.884 28.318 17.666 28.114V26.21H15.83V15.806C15.83 10.876 14.164 8.938 8.962 8.938C5.12 8.938 1.72 10.842 0.938 11.522L1.992 13.698C3.08 13.188 5.154 12.168 7.738 12.168C10.662 12.168 11.308 13.29 11.308 15.908V16.69C5.154 16.724 0.156 18.628 0.156 22.946ZM8.078 25.802C6.378 25.802 5.222 24.68 5.222 22.47C5.222 20.43 7.024 18.764 11.308 18.764V24.34C10.424 25.122 9.064 25.802 8.078 25.802ZM23.6918 25.904L21.7198 26.21V28.25H30.5938V26.21L28.5538 25.904V13.528C29.5058 12.814 31.1038 11.862 32.7018 11.862C35.0478 11.862 35.5918 13.188 35.5918 16.554V25.938L33.7558 26.21V28.25H42.5278V26.21L40.4538 25.938V16.554C40.4538 11.114 39.1278 8.972 35.0138 8.972C32.2258 8.972 29.5058 10.4 28.0778 11.726L28.1118 10.91V9.584L27.2618 8.904H27.1598L21.5158 9.618V11.964L23.6918 12.576V25.904ZM52.6424 28.556C55.0904 28.556 57.8444 27.57 59.0004 26.686L58.3544 24.782C57.6404 25.088 56.2804 25.428 55.0564 25.428C53.4924 25.428 53.3224 25.156 53.3224 21.518V11.964H58.4904V9.346H53.2884L53.1524 4.348H50.4324C50.1604 5.3 49.6844 7.034 49.3104 7.884C49.0384 8.632 48.7324 9.108 48.3244 9.414C47.8144 9.652 46.8964 9.958 46.2504 10.196V11.964H48.4604V24.442C48.4604 27.366 49.8544 28.556 52.6424 28.556ZM66.8553 6.252H66.8893C68.8953 6.252 69.9833 5.028 69.9833 3.26C69.9833 1.9 69.1333 0.709998 67.1953 0.709998C65.3253 0.709998 64.2033 2.002 64.2033 3.702C64.2033 5.13 65.1553 6.252 66.8553 6.252ZM65.0533 25.904L62.6733 26.21V28.25H72.1593V26.21L69.8813 25.938V9.584L68.9293 8.904H68.8613L62.6393 9.652V11.93L65.0533 12.576V25.904ZM76.1544 18.968C76.1544 24.476 78.8744 28.624 84.8924 28.624C87.9864 28.624 90.5704 27.06 91.5224 26.04L90.7404 24.272C89.6864 24.952 88.0884 25.666 85.9804 25.666C83.1924 25.666 81.2544 23.082 81.2544 17.948C81.2884 13.018 82.9204 11.08 85.3344 11.08C86.2524 11.08 87.1704 11.284 87.3404 11.964L88.1904 15.704H91.1484L91.3524 9.89C90.2984 9.686 88.6324 8.87 85.8104 8.87C79.8264 8.87 76.1204 13.052 76.1544 18.968Z" fill="#A06056"/>
</svg>
